<?xml version="1.0" encoding="utf-8"?>
<svg version="1.1" id="logo" xmlns="http://www.w3.org/2000/svg" xmlns:xlink="http://www.w3.org/1999/xlink" x="0px" y="0px"
	 viewBox="0 0 24 24" style="enable-background:new 0 0 24 24;" xml:space="preserve">
<path d="M12,0.7c-6.7,0-12,2.2-12,5V18c0,2.8,5.3,5,12,5c2.6,0,5.1-0.3,7.2-1c0.2-0.1,0.3-0.3,0.2-0.4c-0.1-0.2-0.2-0.3-0.4-0.2
	c-2,0.6-4.4,0.9-7,0.9c-6.1,0-11.3-2-11.3-4.3v-4.5c0.7,0.8,1.8,1.5,3.3,2c0,0,0.1,0,0.1,0c0.1,0,0.3-0.1,0.3-0.2
	c0.1-0.2,0-0.4-0.2-0.4c-2.3-0.8-3.6-1.9-3.6-3.1V7.3C1.3,8,2.2,8.6,3.5,9.2C3.7,9.2,3.9,9.2,4,9C4,8.8,4,8.6,3.8,8.5
	c-2-0.8-3.1-1.9-3.1-2.9c0-2.3,5.2-4.3,11.3-4.3s11.3,2,11.3,4.3c0,1.1-1.2,2.2-3.3,3c-0.2,0.1-0.3,0.3-0.2,0.5
	c0.1,0.1,0.2,0.2,0.3,0.2c0,0,0.1,0,0.1,0c1.4-0.5,2.4-1.2,3-1.9v4.5c0,1.2-1.4,2.3-3.8,3.2c-0.2,0.1-0.3,0.3-0.2,0.4
	c0,0.1,0.2,0.2,0.3,0.2c0,0,0.1,0,0.1,0c1.7-0.6,2.9-1.3,3.6-2.1V18c0,0.3-0.1,0.7-0.4,1.1c-0.1,0.2-0.1,0.4,0.1,0.5
	c0.1,0,0.1,0.1,0.2,0.1c0.1,0,0.2,0,0.3-0.1c0.3-0.5,0.5-1,0.5-1.5V5.6C24,2.8,18.7,0.7,12,0.7z"/>
<path d="M14.4,12c0-2-1.5-3.9-2.2-4.7L12,7.1l-0.2,0.2C11.1,8.1,9.6,9.9,9.6,12c0,1.4,1,2.7,2.1,2.9v1c0,0.2,0.1,0.3,0.3,0.3
	s0.3-0.1,0.3-0.3v-1C13.4,14.7,14.4,13.3,14.4,12z M12.3,14.3v-3.2c0-0.2-0.1-0.3-0.3-0.3s-0.3,0.1-0.3,0.3v3.2
	c-0.8-0.2-1.6-1.3-1.6-2.3c0-1.7,1.2-3.2,1.9-4c0.7,0.8,1.9,2.3,1.9,4C13.9,13,13.1,14.1,12.3,14.3z"/>
<path d="M23.9,22.8l-7-7c1.7-1.9,2.2-4.8,1-7.3l0,0c-0.8-1.6-2.1-2.8-3.8-3.4C12.4,4.6,10.6,4.7,9,5.4C7.4,6.2,6.2,7.6,5.6,9.2
	c-0.6,1.7-0.5,3.5,0.3,5.1c1.1,2.3,3.5,3.7,6,3.7c1,0,2-0.2,2.9-0.7c0.6-0.3,1.1-0.6,1.6-1.1l7,7c0.1,0.1,0.3,0.1,0.5,0
	C24,23.1,24,22.9,23.9,22.8z M14.5,16.7C11.6,18.2,8,16.9,6.6,14c-0.7-1.4-0.8-3-0.3-4.5s1.6-2.7,3-3.4c0.8-0.4,1.7-0.6,2.6-0.6
	c0.6,0,1.3,0.1,1.9,0.3c1.5,0.5,2.7,1.6,3.4,3l0,0C18.7,11.7,17.4,15.3,14.5,16.7z"/>
</svg>
