<?xml version="1.0" encoding="utf-8"?>
<svg version="1.1" 
	xmlns="http://www.w3.org/2000/svg" 
	xmlns:xlink="http://www.w3.org/1999/xlink" x="0px" y="0px" viewBox="0 0 16 16" style="enable-background:new 0 0 16 16;" xml:space="preserve">
	<style type="text/css">
	.fill{fill:#000000;}
	</style>
	<path class="fill" d="M8,12.3c-2,0-4.1-1-6.3-3C1.3,8.9,1,8.5,1,8c0-0.5,0.3-0.9,0.7-1.3c2.2-2,4.3-3,6.3-3c2,0,4.1,1,6.3,3l0,0
				C14.7,7.1,15,7.5,15,8c0,0.5-0.3,0.9-0.7,1.3C12.1,11.3,10,12.3,8,12.3z M8,4.1c-1.9,0-3.9,1-6,2.9C1.6,7.3,1.4,7.6,1.4,8
				c0,0.4,0.2,0.7,0.6,1c2.1,2,4.1,2.9,6,2.9c1.9,0,3.9-1,6-2.9c0.3-0.3,0.6-0.6,0.6-1c0-0.4-0.2-0.7-0.6-1l0,0
				C11.9,5.1,9.9,4.1,8,4.1z"/>
	<path class="fill" d="M8,10.4c-1.3,0-2.4-1.1-2.4-2.4c0-1.3,1.1-2.4,2.4-2.4c1.3,0,2.4,1.1,2.4,2.4C10.4,9.3,9.3,10.4,8,10.4z M8,6
				c-1.1,0-2,0.9-2,2s0.9,2,2,2s2-0.9,2-2S9.1,6,8,6z"/>
</svg>
