<?xml version="1.0" encoding="utf-8"?>
<svg version="1.1" id="command_refresh" 
	xmlns="http://www.w3.org/2000/svg" 
	xmlns:xlink="http://www.w3.org/1999/xlink" x="0px" y="0px" viewBox="0 0 16 16" style="enable-background:new 0 0 16 16;" xml:space="preserve">
	<style type="text/css">
	.fill{fill:#000000;}
	</style>
	<path class="fill" d="M14.8,3.3C14.9,3.3,15,3.2,15,3c0-0.1-0.1-0.2-0.2-0.2h-2.2c0,0,0,0,0,0c0,0,0,0,0,0c0,0-0.1,0-0.1,0c0,0,0,0,0,0
	c0,0,0,0.1,0,0.1c0,0,0,0,0,0.1v0c0,0,0,0,0,0v2.1c0,0.1,0.1,0.2,0.2,0.2c0.1,0,0.2-0.1,0.2-0.2V3.6C14,4.8,14.6,6.3,14.6,8
	c0,3.6-2.9,6.6-6.6,6.6c-0.8,0-1.6-0.1-2.4-0.4c-0.1,0-0.2,0-0.3,0.1c0,0.1,0,0.2,0.1,0.3C6.3,14.8,7.1,15,8,15c3.9,0,7-3.1,7-7
	c0-1.8-0.7-3.5-1.9-4.7H14.8z"/>
	<path class="fill" d="M10.5,1.5C9.7,1.2,8.9,1,8,1C4.1,1,1,4.1,1,8c0,1.8,0.7,3.5,1.9,4.7H1.2C1.1,12.7,1,12.8,1,13c0,0.1,0.1,0.2,0.2,0.2h2.2
	c0.1,0,0.1,0,0.2-0.1c0,0,0,0,0,0c0,0,0-0.1,0-0.1c0,0,0,0,0-0.1v0c0,0,0,0,0,0v-2.1c0-0.1-0.1-0.2-0.2-0.2c-0.1,0-0.2,0.1-0.2,0.2
	v1.6C2,11.2,1.4,9.7,1.4,8c0-3.6,2.9-6.6,6.6-6.6c0.8,0,1.6,0.1,2.4,0.4c0.1,0,0.2,0,0.3-0.1C10.7,1.6,10.6,1.5,10.5,1.5z"/>
</svg>
