<?xml version="1.0" encoding="utf-8"?>
<svg version="1.1" id="mongodb_icon" 
	xmlns="http://www.w3.org/2000/svg" 
	xmlns:xlink="http://www.w3.org/1999/xlink" x="0px" y="0px" viewBox="0 0 24 24" style="enable-background:new 0 0 24 24;" xml:space="preserve">
	<style type="text/css">
	.fill{fill:#000000;}
	</style>
	<path class="fill" d="M14.8,13c0-2.4-1.8-4.5-2.6-5.3L12,7.4l-0.2,0.2c-0.8,0.8-2.6,3-2.6,5.3c0,1.6,1.2,3.2,2.5,3.4v1.1c0,0.2,0.1,0.3,0.3,0.3
	c0.2,0,0.3-0.1,0.3-0.3v-1.1C13.6,16.2,14.8,14.6,14.8,13z M12.3,15.7V12c0-0.2-0.1-0.3-0.3-0.3c-0.2,0-0.3,0.1-0.3,0.3v3.7
	c-1-0.2-1.8-1.5-1.8-2.7c0-1.9,1.4-3.7,2.2-4.6c0.8,0.9,2.2,2.7,2.2,4.6C14.2,14.3,13.3,15.5,12.3,15.7z"/>
	<g>
		<path class="fill" d="M18.6,1.4c-1.6-0.2-3.8-0.3-6.6-0.3l0,0l0,0l0,0l0,0c-2.8,0-5,0.1-6.6,0.3c-0.2,0-0.3,0.2-0.3,0.4c0,0.2,0.2,0.3,0.3,0.3
		c0,0,0,0,0,0C7.1,1.8,9.2,1.7,12,1.7c2.8,0,4.9,0.1,6.5,0.3c0,0,0,0,0,0c0.2,0,0.3-0.1,0.3-0.3C18.9,1.6,18.8,1.4,18.6,1.4z"/>
		<path class="fill" d="M18.6,3.7C16.9,3.9,14.8,4,12,4l0,0l0,0l0,0l0,0C9.2,4,7,3.9,5.4,3.7c-0.2,0-0.3-0.2-0.3-0.4C5.1,3.1,5.3,3,5.4,3
		c0,0,0,0,0,0C7.1,3.2,9.2,3.3,12,3.3c2.8,0,4.9-0.1,6.5-0.3c0,0,0,0,0,0c0.2,0,0.3,0.1,0.3,0.3C18.9,3.5,18.8,3.6,18.6,3.7z"/>
		<path class="fill" d="M18.6,22.6c-1.6,0.2-3.8,0.3-6.6,0.3l0,0l0,0l0,0l0,0c-2.8,0-5-0.1-6.6-0.3c-0.2,0-0.3-0.2-0.3-0.4c0-0.2,0.2-0.3,0.3-0.3
		c0,0,0,0,0,0c1.6,0.2,3.7,0.3,6.5,0.3c2.8,0,4.9-0.1,6.5-0.3c0,0,0,0,0,0c0.2,0,0.3,0.1,0.3,0.3C18.9,22.4,18.8,22.6,18.6,22.6z"/>
	</g>
	<path class="fill" d="M23.7,11.4c-0.1,0-0.7-0.2-1.1-0.4c-0.2-0.1-0.7-0.7-0.7-1.2V3.3c0-0.8-0.8-1.6-1.4-1.6c-0.2,0-0.3,0.1-0.3,0.3
	c0,0.2,0.1,0.3,0.3,0.3c0.2,0,0.7,0.4,0.7,0.9v6.5c0,0.8,0.7,1.6,1,1.8c0.1,0.1,0.2,0.1,0.4,0.2c-0.1,0.1-0.3,0.1-0.4,0.2
	c-0.3,0.2-1,0.9-1,1.8v6.5c0,0.5-0.5,0.9-0.7,0.9s-0.3,0.1-0.3,0.3s0.1,0.3,0.3,0.3c0.6,0,1.4-0.8,1.4-1.6v-6.5
	c0-0.5,0.5-1.1,0.7-1.2c0.4-0.2,0.9-0.4,1.1-0.4c0.2,0,0.3-0.1,0.3-0.3C24,11.6,23.9,11.4,23.7,11.4z"/>
	<path class="fill" d="M0.3,11.4c0.1,0,0.7-0.2,1.1-0.4c0.2-0.1,0.7-0.7,0.7-1.2V3.3c0-0.8,0.8-1.6,1.4-1.6c0.2,0,0.3,0.1,0.3,0.3
	c0,0.2-0.1,0.3-0.3,0.3c-0.2,0-0.7,0.4-0.7,0.9v6.5c0,0.8-0.7,1.6-1,1.8c-0.1,0.1-0.2,0.1-0.4,0.2c0.1,0.1,0.3,0.1,0.4,0.2
	c0.3,0.2,1,0.9,1,1.8v6.5c0,0.5,0.5,0.9,0.7,0.9c0.2,0,0.3,0.1,0.3,0.3s-0.1,0.3-0.3,0.3c-0.6,0-1.4-0.8-1.4-1.6v-6.5
	c0-0.5-0.5-1.1-0.7-1.2c-0.4-0.2-0.9-0.4-1.1-0.4C0.1,12.1,0,12,0,11.8C0,11.6,0.1,11.4,0.3,11.4z"/>
</svg>
