<?xml version="1.0" encoding="utf-8"?>
<svg version="1.1" id="system_db" 
	xmlns="http://www.w3.org/2000/svg" 
	xmlns:xlink="http://www.w3.org/1999/xlink" x="0px" y="0px" viewBox="0 0 16 16" style="enable-background:new 0 0 16 16;" xml:space="preserve">
	<style type="text/css">
	.fill{fill:#000000;}
	</style>
	<g>
		<path class="fill" d="M11.9,1.8c-1-0.1-2.2-0.2-3.8-0.2l0,0l0,0l0,0l0,0c-1.6,0-2.9,0.1-3.8,0.2C4.1,1.8,4,1.9,4,2c0,0.1,0.1,0.2,0.2,0.2
		c0,0,0,0,0,0C5.2,2.1,6.4,2,8,2c1.6,0,2.9,0.1,3.8,0.2c0,0,0,0,0,0C11.9,2.2,12,2.1,12,2C12,1.9,12,1.8,11.9,1.8z"/>
		<path class="fill" d="M11.9,3.1c-1,0.1-2.2,0.2-3.8,0.2l0,0l0,0l0,0l0,0c-1.6,0-2.9-0.1-3.8-0.2C4.1,3.1,4,3,4,2.9c0-0.1,0.1-0.2,0.2-0.2
		c0,0,0,0,0,0C5.2,2.9,6.4,2.9,8,2.9c1.6,0,2.9-0.1,3.8-0.2c0,0,0,0,0,0c0.1,0,0.2,0.1,0.2,0.2C12,3,12,3.1,11.9,3.1z"/>
		<path class="fill" d="M11.9,14.2c-1,0.1-2.2,0.2-3.8,0.2l0,0l0,0l0,0l0,0c-1.6,0-2.9-0.1-3.8-0.2C4.1,14.2,4,14.1,4,14c0-0.1,0.1-0.2,0.2-0.2
		c0,0,0,0,0,0C5.2,13.9,6.4,14,8,14c1.6,0,2.9-0.1,3.8-0.2c0,0,0,0,0,0c0.1,0,0.2,0.1,0.2,0.2C12,14.1,12,14.2,11.9,14.2z"/>
	</g>
	<path class="fill" d="M14.8,7.7c-0.1,0-0.4-0.1-0.6-0.2c-0.1-0.1-0.4-0.4-0.4-0.7V2.9C13.8,2.5,13.3,2,13,2c-0.1,0-0.2,0.1-0.2,0.2
	s0.1,0.2,0.2,0.2c0.1,0,0.4,0.3,0.4,0.5v3.8c0,0.5,0.4,0.9,0.6,1c0.1,0,0.1,0.1,0.2,0.1C14.1,7.9,14,8,14,8c-0.2,0.1-0.6,0.5-0.6,1
	v3.8c0,0.3-0.3,0.5-0.4,0.5s-0.2,0.1-0.2,0.2s0.1,0.2,0.2,0.2c0.3,0,0.8-0.5,0.8-0.9V9c0-0.3,0.3-0.6,0.4-0.7
	c0.2-0.1,0.5-0.2,0.6-0.2C14.9,8.1,15,8,15,7.9S14.9,7.7,14.8,7.7z"/>
	<path class="fill" d="M1.2,7.7c0.1,0,0.4-0.1,0.6-0.2C1.9,7.4,2.2,7,2.2,6.7V2.9C2.2,2.5,2.7,2,3,2c0.1,0,0.2,0.1,0.2,0.2S3.1,2.4,3,2.4
	c-0.1,0-0.4,0.3-0.4,0.5v3.8c0,0.5-0.4,0.9-0.6,1C2,7.8,1.9,7.8,1.8,7.9C1.9,7.9,2,8,2,8c0.2,0.1,0.6,0.5,0.6,1v3.8
	c0,0.3,0.3,0.5,0.4,0.5c0.1,0,0.2,0.1,0.2,0.2S3.1,13.7,3,13.7c-0.3,0-0.8-0.5-0.8-0.9V9c0-0.3-0.3-0.6-0.4-0.7
	C1.6,8.2,1.3,8.1,1.2,8.1C1.1,8.1,1,8,1,7.9S1.1,7.7,1.2,7.7z"/>
	<g>
		<path class="fill" d="M8.3,12.7H7.7C7.3,12.7,7,12.4,7,12v-0.2c-0.2-0.1-0.3-0.1-0.5-0.2l-0.1,0.1c-0.3,0.3-0.8,0.3-1,0L5,11.4
		c-0.3-0.3-0.3-0.8,0-1l0.1-0.1C5,10.1,5,9.9,4.9,9.7H4.7C4.3,9.7,4,9.4,4,9V8.5c0-0.4,0.3-0.7,0.7-0.7h0.2C5,7.6,5,7.4,5.1,7.2
		L5,7.1c-0.3-0.3-0.3-0.8,0-1l0.4-0.4c0.3-0.3,0.8-0.3,1,0l0.1,0.1C6.7,5.8,6.8,5.7,7,5.6V5.5c0-0.4,0.3-0.7,0.7-0.7h0.5
		C8.7,4.7,9,5.1,9,5.5v0.2c0.2,0.1,0.3,0.1,0.5,0.2l0.1-0.1c0.3-0.3,0.8-0.3,1,0L11,6.1c0.3,0.3,0.3,0.8,0,1l-0.1,0.1
		C11,7.4,11,7.6,11.1,7.7h0.2c0.4,0,0.7,0.3,0.7,0.7V9c0,0.4-0.3,0.7-0.7,0.7h-0.2c-0.1,0.2-0.1,0.3-0.2,0.5l0.1,0.1
		c0.3,0.3,0.3,0.8,0,1l-0.4,0.4c-0.3,0.3-0.8,0.3-1,0l-0.1-0.1c-0.2,0.1-0.3,0.2-0.5,0.2V12C9,12.4,8.7,12.7,8.3,12.7z M6.6,11.1
		c0.2,0.1,0.5,0.2,0.7,0.3c0.1,0,0.2,0.1,0.2,0.2V12c0,0.1,0.1,0.3,0.3,0.3h0.5c0.1,0,0.3-0.1,0.3-0.3v-0.3c0-0.1,0.1-0.2,0.2-0.2
		c0.3-0.1,0.5-0.2,0.7-0.3c0.1-0.1,0.2,0,0.3,0l0.2,0.2c0.1,0.1,0.3,0.1,0.4,0l0.4-0.4c0.1-0.1,0.1-0.3,0-0.4l-0.2-0.2
		c-0.1-0.1-0.1-0.2,0-0.3c0.1-0.2,0.2-0.5,0.3-0.7c0-0.1,0.1-0.2,0.2-0.2h0.3c0.1,0,0.3-0.1,0.3-0.3V8.5c0-0.1-0.1-0.3-0.3-0.3h-0.3
		c-0.1,0-0.2-0.1-0.2-0.2c-0.1-0.3-0.2-0.5-0.3-0.7c-0.1-0.1,0-0.2,0-0.3l0.2-0.2c0.1-0.1,0.1-0.3,0-0.4l-0.4-0.4
		C10.2,6,10,5.9,9.9,6.1L9.7,6.3c-0.1,0.1-0.2,0.1-0.3,0C9.2,6.2,8.9,6.1,8.7,6C8.6,6,8.5,5.9,8.5,5.8V5.5c0-0.1-0.1-0.3-0.3-0.3
		H7.7c-0.1,0-0.3,0.1-0.3,0.3v0.3C7.5,5.9,7.4,6,7.3,6C7.1,6.1,6.8,6.2,6.6,6.3c-0.1,0.1-0.2,0-0.3,0L6.1,6.1C6,5.9,5.8,6,5.7,6.1
		L5.3,6.4c-0.1,0.1-0.1,0.3,0,0.4L5.6,7c0.1,0.1,0.1,0.2,0,0.3C5.5,7.5,5.4,7.8,5.3,8c0,0.1-0.1,0.2-0.2,0.2H4.7
		c-0.1,0-0.3,0.1-0.3,0.3V9c0,0.1,0.1,0.3,0.3,0.3h0.3c0.1,0,0.2,0.1,0.2,0.2c0.1,0.3,0.2,0.5,0.3,0.7c0.1,0.1,0,0.2,0,0.3l-0.2,0.2
		c-0.1,0.1-0.1,0.3,0,0.4l0.4,0.4c0.1,0.1,0.3,0.1,0.4,0l0.2-0.2C6.4,11.1,6.5,11.1,6.6,11.1L6.6,11.1z"/>
		<path class="fill" d="M8,10.5c-1,0-1.7-0.8-1.7-1.7S7,7,8,7s1.7,0.8,1.7,1.7S9,10.5,8,10.5z M8,7.5C7.3,7.5,6.7,8,6.7,8.7C6.7,9.4,7.3,10,8,10
		s1.3-0.6,1.3-1.3C9.3,8,8.7,7.5,8,7.5L8,7.5z"/>
	</g>
</svg>
