<?xml version="1.0" encoding="utf-8"?>
<svg version="1.1" id="collection" 
	xmlns="http://www.w3.org/2000/svg" 
	xmlns:xlink="http://www.w3.org/1999/xlink" x="0px" y="0px" viewBox="0 0 16 16" style="enable-background:new 0 0 16 16;" xml:space="preserve">
	<style type="text/css">
	.fill{fill:#E5E5E5;}
	</style>
	<g>
		<path class="fill" d="M11.9,1.8c-1-0.1-2.2-0.2-3.8-0.2l0,0l0,0l0,0l0,0c-1.6,0-2.9,0.1-3.8,0.2C4.1,1.8,4,1.9,4,2c0,0.1,0.1,0.2,0.2,0.2
		c0,0,0,0,0,0C5.2,2.1,6.4,2,8,2c1.6,0,2.9,0.1,3.8,0.2c0,0,0,0,0,0C11.9,2.2,12,2.1,12,2C12,1.9,12,1.8,11.9,1.8z"/>
		<path class="fill" d="M11.9,3.1c-1,0.1-2.2,0.2-3.8,0.2l0,0l0,0l0,0l0,0c-1.6,0-2.9-0.1-3.8-0.2C4.1,3.1,4,3,4,2.9c0-0.1,0.1-0.2,0.2-0.2
		c0,0,0,0,0,0C5.2,2.9,6.4,2.9,8,2.9c1.6,0,2.9-0.1,3.8-0.2c0,0,0,0,0,0c0.1,0,0.2,0.1,0.2,0.2C12,3,12,3.1,11.9,3.1z"/>
		<path class="fill" d="M11.9,8.7c-1,0.1-2.2,0.2-3.8,0.2l0,0l0,0l0,0l0,0c-1.6,0-2.9-0.1-3.8-0.2C4.1,8.6,4,8.5,4,8.4c0-0.1,0.1-0.2,0.2-0.2
		c0,0,0,0,0,0C5.2,8.4,6.4,8.5,8,8.5c1.6,0,2.9-0.1,3.8-0.2c0,0,0,0,0,0c0.1,0,0.2,0.1,0.2,0.2C12,8.5,12,8.6,11.9,8.7z"/>
		<path class="fill" d="M11.9,14.2c-1,0.1-2.2,0.2-3.8,0.2l0,0l0,0l0,0l0,0c-1.6,0-2.9-0.1-3.8-0.2C4.1,14.2,4,14.1,4,14c0-0.1,0.1-0.2,0.2-0.2
		c0,0,0,0,0,0C5.2,13.9,6.4,14,8,14c1.6,0,2.9-0.1,3.8-0.2c0,0,0,0,0,0c0.1,0,0.2,0.1,0.2,0.2C12,14.1,12,14.2,11.9,14.2z"/>
	</g>
	<path class="fill" d="M14.8,7.7c-0.1,0-0.4-0.1-0.6-0.2c-0.1-0.1-0.4-0.4-0.4-0.7V2.9C13.8,2.5,13.3,2,13,2c-0.1,0-0.2,0.1-0.2,0.2
	s0.1,0.2,0.2,0.2c0.1,0,0.4,0.3,0.4,0.5v3.8c0,0.5,0.4,0.9,0.6,1c0.1,0,0.1,0.1,0.2,0.1C14.1,7.9,14,8,14,8c-0.2,0.1-0.6,0.5-0.6,1
	v3.8c0,0.3-0.3,0.5-0.4,0.5s-0.2,0.1-0.2,0.2s0.1,0.2,0.2,0.2c0.3,0,0.8-0.5,0.8-0.9V9c0-0.3,0.3-0.6,0.4-0.7
	c0.2-0.1,0.5-0.2,0.6-0.2C14.9,8.1,15,8,15,7.9S14.9,7.7,14.8,7.7z"/>
	<path class="fill" d="M1.2,7.7c0.1,0,0.4-0.1,0.6-0.2C1.9,7.4,2.2,7,2.2,6.7V2.9C2.2,2.5,2.7,2,3,2c0.1,0,0.2,0.1,0.2,0.2S3.1,2.4,3,2.4
	c-0.1,0-0.4,0.3-0.4,0.5v3.8c0,0.5-0.4,0.9-0.6,1C2,7.8,1.9,7.8,1.8,7.9C1.9,7.9,2,8,2,8c0.2,0.1,0.6,0.5,0.6,1v3.8
	c0,0.3,0.3,0.5,0.4,0.5c0.1,0,0.2,0.1,0.2,0.2S3.1,13.7,3,13.7c-0.3,0-0.8-0.5-0.8-0.9V9c0-0.3-0.3-0.6-0.4-0.7
	C1.6,8.2,1.3,8.1,1.2,8.1C1.1,8.1,1,8,1,7.9S1.1,7.7,1.2,7.7z"/>
</svg>
