<?xml version="1.0" encoding="utf-8"?>
<svg version="1.1" id="document" 
	xmlns="http://www.w3.org/2000/svg" 
	xmlns:xlink="http://www.w3.org/1999/xlink" x="0px" y="0px" viewBox="0 0 16 16" style="enable-background:new 0 0 16 16;" xml:space="preserve">
	<style type="text/css">
	.fill{fill:#E5E5E5;}
	</style>
	<g>
		<path class="fill" d="M12.5,15h-9c-0.7,0-1.3-0.6-1.3-1.3V2.3C2.2,1.6,2.8,1,3.5,1H10c0.4,0,0.7,0.1,0.9,0.4c0,0,0,0,1.2,1.3
		C12.8,3.3,13.4,4,13.4,4c0.2,0.2,0.4,0.6,0.4,0.9v8.7C13.8,14.4,13.2,15,12.5,15z M3.5,1.4C3,1.4,2.6,1.8,2.6,2.3v11.3
		c0,0.5,0.4,0.9,0.9,0.9h9c0.5,0,0.9-0.4,0.9-0.9V4.9c0-0.2-0.1-0.5-0.3-0.6c0,0,0,0-1.2-1.3c-0.6-0.6-1.2-1.3-1.2-1.3
		c-0.2-0.2-0.4-0.3-0.6-0.3H3.5z"/>
	</g>
	<g>
		<path class="fill" d="M4.5,7.7c0.2,0,0.3-0.1,0.4-0.2c0.1-0.1,0.2-0.3,0.2-0.5c0-0.2,0.1-0.4,0.1-0.6c0-0.2,0-0.3,0-0.5V4.3c0-0.1,0-0.3,0-0.5
		c0-0.2,0.1-0.3,0.2-0.4c0.1-0.1,0.2-0.2,0.3-0.3C5.9,3,6,3,6.2,3h0.5v0.5H6.3C6.2,3.5,6.1,3.6,6,3.8C5.9,3.9,5.9,4.2,5.9,4.6v1.7
		c0,0.1,0,0.3,0,0.5c0,0.2-0.1,0.3-0.1,0.5C5.7,7.4,5.6,7.5,5.5,7.7C5.4,7.8,5.3,7.9,5.2,8v0c0.1,0.1,0.3,0.2,0.4,0.3
		c0.1,0.1,0.2,0.3,0.2,0.4s0.1,0.3,0.1,0.5c0,0.2,0,0.3,0,0.5v1.7c0,0.4,0,0.6,0.1,0.8c0.1,0.2,0.2,0.3,0.3,0.3h0.4V13H6.2
		c-0.2,0-0.3,0-0.4-0.1c-0.1-0.1-0.2-0.2-0.3-0.3c-0.1-0.1-0.1-0.3-0.2-0.4c0-0.2,0-0.3,0-0.5V9.9c0-0.1,0-0.3,0-0.5
		c0-0.2,0-0.4-0.1-0.6c0-0.2-0.1-0.3-0.2-0.5C4.9,8.3,4.7,8.3,4.5,8.3V7.7z"/>
		<path class="fill" d="M11.5,8.3c-0.2,0-0.3,0.1-0.4,0.2c-0.1,0.1-0.2,0.3-0.2,0.5c0,0.2-0.1,0.4-0.1,0.6c0,0.2,0,0.3,0,0.5v1.8
		c0,0.1,0,0.3,0,0.5c0,0.2-0.1,0.3-0.2,0.4c-0.1,0.1-0.2,0.2-0.3,0.3C10.1,13,10,13,9.8,13H9.3v-0.5h0.4c0.2,0,0.3-0.1,0.3-0.3
		c0.1-0.2,0.1-0.4,0.1-0.8V9.7c0-0.1,0-0.3,0-0.5c0-0.2,0.1-0.3,0.1-0.5c0.1-0.2,0.1-0.3,0.2-0.4c0.1-0.1,0.2-0.2,0.4-0.3v0
		c-0.1-0.1-0.3-0.2-0.4-0.3c-0.1-0.1-0.2-0.3-0.2-0.5c-0.1-0.2-0.1-0.3-0.1-0.5c0-0.2,0-0.3,0-0.5V4.6c0-0.4,0-0.6-0.1-0.8
		C9.9,3.6,9.8,3.5,9.7,3.5H9.3V3h0.5c0.2,0,0.3,0,0.4,0.1c0.1,0.1,0.2,0.2,0.3,0.3c0.1,0.1,0.1,0.3,0.2,0.4c0,0.2,0,0.3,0,0.5v1.8
		c0,0.1,0,0.3,0,0.5c0,0.2,0,0.4,0.1,0.6s0.1,0.3,0.2,0.5c0.1,0.1,0.2,0.2,0.4,0.2V8.3z"/>
	</g>
</svg>
