<?xml version="1.0" encoding="utf-8"?>
<svg version="1.1" id="users_icon" 
	xmlns="http://www.w3.org/2000/svg" 
	xmlns:xlink="http://www.w3.org/1999/xlink" x="0px" y="0px" viewBox="0 0 16 16" style="enable-background:new 0 0 16 16;" xml:space="preserve">
	<style type="text/css">
	.fill{fill:#E5E5E5;}
	</style>
	<path class="fill" d="M5.3,8.3c-1.5,0-2.7-1.2-2.7-2.7s1.2-2.7,2.7-2.7S8,4.1,8,5.6S6.8,8.3,5.3,8.3z M5.3,3.3C4,3.3,3,4.3,3,5.6
			c0,1.3,1,2.3,2.3,2.3c1.3,0,2.3-1,2.3-2.3C7.6,4.3,6.5,3.3,5.3,3.3z"/>
	<path class="fill" d="M9.6,13.1H9.2c0-2.1-1.7-3.9-3.9-3.9s-3.9,1.7-3.9,3.9H1c0-2.4,1.9-4.3,4.3-4.3C7.6,8.8,9.6,10.7,9.6,13.1z"/>
	<path class="fill" d="M10.7,8.3c-0.5,0-1-0.2-1.5-0.4C9.2,7.8,9.1,7.6,9.2,7.5c0.1-0.1,0.2-0.1,0.3-0.1c0.4,0.2,0.8,0.4,1.3,0.4
			c1.3,0,2.3-1,2.3-2.3c0-1.3-1-2.3-2.3-2.3c-0.4,0-0.9,0.1-1.3,0.4c-0.1,0.1-0.2,0-0.3-0.1c-0.1-0.1,0-0.2,0.1-0.3
			c0.4-0.3,0.9-0.4,1.5-0.4c1.5,0,2.7,1.2,2.7,2.7S12.2,8.3,10.7,8.3z"/>
	<path class="fill" d="M15,13.1c0-2.4-1.9-4.3-4.3-4.3c-0.3,0-0.7,0-1,0.1c-0.1,0-0.2,0.1-0.1,0.2c0,0.1,0.1,0.2,0.2,0.1
			c0.3-0.1,0.6-0.1,0.9-0.1c2.1,0,3.9,1.7,3.9,3.9H15z"/>
</svg>
