<?xml version="1.0" encoding="utf-8"?>
<svg version="1.1" id="user_icon" 
	xmlns="http://www.w3.org/2000/svg" 
	xmlns:xlink="http://www.w3.org/1999/xlink" x="0px" y="0px" viewBox="0 0 16 16" style="enable-background:new 0 0 16 16;" xml:space="preserve">
	<style type="text/css">
	.fill{fill:#E5E5E5;}
	</style>
	<path class="fill" d="M8,8.4c-2,0-3.7-1.7-3.7-3.7S6,1,8,1s3.7,1.7,3.7,3.7S10,8.4,8,8.4z M8,1.5C6.3,1.5,4.9,3,4.9,4.7c0,1.7,1.4,3.1,3.1,3.1
			c1.7,0,3.1-1.4,3.1-3.1C11.1,3,9.7,1.5,8,1.5z"/>
	<path class="fill" d="M13.9,15h-0.6c0-2.9-2.4-5.3-5.3-5.3S2.7,12.1,2.7,15H2.1c0-3.2,2.6-5.9,5.9-5.9C11.2,9.1,13.9,11.8,13.9,15z"/>
</svg>
